<?xml version="1.0" encoding="UTF-8"?>
<!DOCTYPE svg PUBLIC "-//W3C//DTD SVG 1.1//EN" "http://www.w3.org/Graphics/SVG/1.1/DTD/svg11.dtd">
<!-- Creator: CorelDRAW X7 -->
<svg xmlns="http://www.w3.org/2000/svg" xml:space="preserve" width="91.44mm" height="91.44mm" version="1.1" style="shape-rendering:geometricPrecision; text-rendering:geometricPrecision; image-rendering:optimizeQuality; fill-rule:evenodd; clip-rule:evenodd"
viewBox="0 0 9144 9144"
 xmlns:xlink="http://www.w3.org/1999/xlink">
 <defs>
  <style type="text/css">
   <![CDATA[
    .fil0 {fill:#B6B6B7}
    .fil1 {fill:#B6B6B7;fill-rule:nonzero}
   ]]>
  </style>
 </defs>
 <g id="Layer_x0020_1">
  <metadata id="CorelCorpID_0Corel-Layer"/>
  <path class="fil0" d="M4556 5176c-137,-66 -316,-281 -408,-613 -93,-332 -78,-315 -394,-398 -295,-78 -593,-459 -703,-740 311,548 1399,216 1431,684l74 1067zm245 -1431c389,-339 1457,101 1532,-985 -414,696 -1456,-108 -1532,985zm-344 0c-389,-339 -1457,101 -1532,-985 414,696 1456,-108 1532,985zm245 1431c137,-66 316,-281 408,-613 93,-332 78,-315 394,-398 295,-78 593,-459 703,-740 -311,548 -1399,216 -1431,684l-74 1067z"/>
  <path class="fil1" d="M2851 5662l-144 0 0 103 124 0 0 86 -124 0 0 188 -91 0 0 -463 235 0 0 86zm559 329l-59 48 -169 0 -58 -48 0 -366 58 -49 169 0 59 49 0 366zm-91 -37l0 -292 -104 0 0 292 104 0zm649 37l-58 48 -169 0 -58 -48 0 -366 58 -49 169 0 58 49 0 366zm-91 -37l0 -292 -103 0 0 292 103 0zm635 -292l-90 0 0 377 -91 0 0 -377 -90 0 0 -86 271 0 0 86zm364 103l94 0 0 -103 -94 0 0 103zm0 189l94 0 0 -103 -94 0 0 103zm185 37l-59 48 -216 0 0 -463 216 0 59 49 0 142 -35 40 35 41 0 143zm492 48l-22 -103 -95 0 -22 103 -93 0 99 -463 127 0 98 463 -92 0zm-40 -188l-30 -139 -29 139 59 0zm630 188l-224 0 0 -463 91 0 0 378 133 0 0 85zm499 0l-225 0 0 -463 91 0 0 378 134 0 0 85zm-3128 239l-144 0 0 103 124 0 0 85 -124 0 0 189 -91 0 0 -463 235 0 0 86zm428 377l-22 -103 -95 0 -22 103 -92 0 98 -463 128 0 98 463 -93 0zm-40 -189l-29 -138 -30 138 59 0zm746 189l-91 0 0 -261 -79 159 -79 -159 0 261 -91 0 0 -463 91 0 79 159 79 -159 91 0 0 463zm364 0l-91 0 0 -463 91 0 0 463zm498 0l-225 0 0 -463 91 0 0 377 134 0 0 86zm357 -171l0 171 -92 0 0 -171 -109 -292 93 0 62 173 61 -173 97 0 -112 292z"/>
 </g>
</svg>
